# xmcd
#
# Track frame offsets: 
#        150
#        17610
#        33748
#        51609
#        64221
#        82710
#        97797
#        114197
#        128981
#        142470
#        161697
#        175730
#        191577
#
# Disc length: 2761 seconds
#
# Revision: 0
# Processed by: cddbd v1.5.2PL0 Copyright (c) Steve Scherf et al.
# Submitted via: ExactAudioCopy v0.95b4
#
DISCID=b00ac70d
DTITLE=Jon Christopher Davis - Jon Christopher Davis
DYEAR=2006
DGENRE=Country
TTITLE0=You Gotta Love Someone
TTITLE1=Cosmic Joke
TTITLE2=She Don't Know She's Lonely
TTITLE3=Love Had Something Else In Mind
TTITLE4=The Bottom Line
TTITLE5=Misfit Town
TTITLE6=Lone Star Attitude
TTITLE7=Round Here
TTITLE8=One Place I've Never Been
TTITLE9=Two Story Town
TTITLE10=Baby Looks Good On You
TTITLE11=I Don't Care
TTITLE12=If I Could Only Fly
EXTD=
EXTT0=
EXTT1=
EXTT2=
EXTT3=
EXTT4=
EXTT5=
EXTT6=
EXTT7=
EXTT8=
EXTT9=
EXTT10=
EXTT11=
EXTT12=
PLAYORDER=
